<svg width="29" height="25" viewBox="0 0 29 25" fill="none" xmlns="http://www.w3.org/2000/svg">
<path d="M23.4267 13.5066L15.3334 21.5866V24.3333H18.08L26.16 16.2399L23.4267 13.5066ZM28.2667 13.1066L26.56 11.3999C26.4959 11.3291 26.4177 11.2724 26.3305 11.2333C26.2433 11.1943 26.1489 11.1739 26.0534 11.1733C25.8534 11.1866 25.6667 11.2533 25.5334 11.3999L24.2 12.7333L26.9334 15.3999L28.2667 14.0666C28.52 13.7999 28.52 13.3733 28.2667 13.1066ZM12.6667 18.9999H3.33335V5.66659L14 12.3333L24.6667 5.66659V8.33325H27.3334V2.99992C27.3334 1.53325 26.1334 0.333252 24.6667 0.333252H3.33335C1.86669 0.333252 0.666687 1.53325 0.666687 2.99992V18.9999C0.666687 20.4666 1.86669 21.6666 3.33335 21.6666H12.6667V18.9999ZM24.6667 2.99992L14 9.66659L3.33335 2.99992H24.6667Z" fill="#2F80ED"/>
</svg>
