<svg width="24" height="34" viewBox="0 0 24 34" fill="none" xmlns="http://www.w3.org/2000/svg">
<path d="M6.9083 33.6666C5.55487 33.6761 4.23186 33.2651 3.12209 32.4904C2.01232 31.7156 1.17057 30.6152 0.713151 29.3414C0.255728 28.0676 0.205213 26.6831 0.568586 25.3794C0.931959 24.0756 1.69128 22.9168 2.74164 22.0632C1.98701 21.4525 1.37843 20.6808 0.960368 19.8046C0.542309 18.9284 0.325348 17.9699 0.325348 16.9991C0.325348 16.0282 0.542309 15.0697 0.960368 14.1935C1.37843 13.3173 1.98701 12.5457 2.74164 11.9349C1.68998 11.0821 0.929431 9.92341 0.565264 8.6193C0.201096 7.31519 0.251317 5.93014 0.708977 4.65583C1.16664 3.38152 2.0091 2.28099 3.11976 1.50656C4.23042 0.732131 5.55435 0.322103 6.9083 0.333228H17.0916C18.4456 0.322103 19.7695 0.732131 20.8802 1.50656C21.9908 2.28099 22.8333 3.38152 23.291 4.65583C23.7486 5.93014 23.7988 7.31519 23.4347 8.6193C23.0705 9.92341 22.31 11.0821 21.2583 11.9349C22.3096 12.788 23.0699 13.9468 23.4338 15.2509C23.7978 16.555 23.7475 17.94 23.29 19.2142C22.8324 20.4885 21.9901 21.5891 20.8797 22.3637C19.7692 23.1384 18.4455 23.5488 17.0916 23.5382C15.81 23.5398 14.5558 23.1667 13.4833 22.4649V27.1316C13.4758 28.8694 12.7794 30.5333 11.5468 31.7584C10.3143 32.9834 8.64613 33.6697 6.9083 33.6666ZM6.87164 23.5399C6.16445 23.5511 5.47634 23.771 4.89374 24.172C4.31114 24.573 3.86005 25.1373 3.59712 25.7938C3.3342 26.4504 3.27117 27.1701 3.41596 27.8624C3.56075 28.5547 3.9069 29.1887 4.41092 29.6849C4.91494 30.1811 5.55436 30.5173 6.24883 30.6512C6.94331 30.7851 7.66188 30.7108 8.31427 30.4376C8.96665 30.1645 9.52376 29.7046 9.91561 29.1158C10.3074 28.527 10.5165 27.8355 10.5166 27.1282V23.5399H6.86997H6.87164ZM17.0933 13.4116C16.3844 13.4152 15.6924 13.6287 15.1048 14.0252C14.5171 14.4217 14.06 14.9834 13.7912 15.6394C13.5224 16.2953 13.454 17.0163 13.5945 17.7111C13.735 18.406 14.0782 19.0436 14.5808 19.5436C15.0833 20.0436 15.7227 20.3836 16.4183 20.5206C17.1139 20.6575 17.8344 20.5854 18.489 20.3133C19.1436 20.0412 19.703 19.5812 20.0965 18.9915C20.49 18.4019 20.7 17.7088 20.7 16.9999C20.6964 16.0458 20.3145 15.1321 19.638 14.4594C18.9615 13.7866 18.0457 13.4098 17.0916 13.4116H17.0933ZM6.90997 13.4116C5.95828 13.4065 5.04356 13.7797 4.36702 14.449C3.69048 15.1184 3.30755 16.029 3.30247 16.9807C3.29739 17.9324 3.67057 18.8471 4.33991 19.5237C5.00926 20.2002 5.91995 20.5831 6.87164 20.5882H10.5166V13.4116H6.90997ZM13.4833 3.28323V10.4616H17.09C18.0183 10.4659 18.9123 10.1106 19.5844 9.4702C20.2565 8.82979 20.6545 7.95403 20.695 7.02656V7.75156V6.87156C20.691 5.9185 20.3096 5.00583 19.6343 4.33331C18.959 3.6608 18.0447 3.28322 17.0916 3.28323H13.4833ZM6.90664 3.28323C5.95495 3.28323 5.04224 3.66128 4.3693 4.33423C3.69636 5.00717 3.3183 5.91988 3.3183 6.87156C3.3183 7.82325 3.69636 8.73595 4.3693 9.4089C5.04224 10.0818 5.95495 10.4599 6.90664 10.4599H10.5166V3.28323H6.90664Z" fill="black"/>
</svg>
