<svg width="40" height="40" viewBox="0 0 40 40" fill="none" xmlns="http://www.w3.org/2000/svg">
<path d="M0 0V40H40V0H0ZM6.205 5.185H14.5383V8.24167H12.2217V18.7033H14.5383V21.76H6.205V18.7033H8.61167V8.24167H6.205V5.185ZM24.63 5.185H28.3333V16.0183C28.3333 17.0383 28.2417 17.87 27.9633 18.6117C27.685 19.3517 27.3133 19.9067 26.7583 20.4617C26.2967 20.9267 25.6483 21.39 24.9083 21.575C24.1419 21.8796 23.3248 22.0368 22.5 22.0383C21.2033 22.0383 20.0933 21.76 19.26 21.2967C18.4529 20.8379 17.7316 20.2423 17.1283 19.5367L19.445 16.945C19.8347 17.4234 20.3044 17.8306 20.8333 18.1483C21.295 18.4267 21.8517 18.6117 22.4083 18.6117C23.0567 18.6117 23.61 18.4267 24.075 17.9633C24.4433 17.5 24.63 16.8517 24.63 15.8333V5.185ZM3.70333 32.5H18.7033V35H3.70333V32.5Z" fill="black"/>
</svg>
