<svg width="26" height="34" viewBox="0 0 26 34" fill="none" xmlns="http://www.w3.org/2000/svg">
<path d="M16.3037 16.8011C16.2214 17.207 15.9927 17.599 15.6835 17.96C15.6938 17.8285 15.694 17.6925 15.6816 17.5526C15.6347 17.0201 15.4097 16.4717 14.9436 15.9381C13.6479 14.4487 13.4256 13.2574 13.6713 12.3149C13.9267 11.3353 14.7224 10.4776 15.7677 9.75495C15.8635 9.68869 15.9608 9.62398 16.0593 9.56081C15.2507 10.2816 14.7572 10.9423 14.5517 11.6036C14.325 12.3329 14.472 12.9827 14.7691 13.5825C15.0068 14.0624 15.3625 14.5499 15.7204 15.0404C15.7894 15.135 15.8586 15.2297 15.9269 15.3245C16.3258 15.8849 16.3901 16.3749 16.3037 16.8011ZM5.34201 19.871C5.31358 19.9368 5.29238 20.0112 5.28537 20.0938C5.26684 20.3122 5.35419 20.4976 5.47777 20.6306C5.57721 20.7376 5.70111 20.8136 5.82272 20.8703C5.0911 20.7711 4.51495 20.6464 4.14406 20.5049C4.10132 20.4886 4.06358 20.4729 4.03042 20.458C4.07715 20.4302 4.13397 20.3994 4.20253 20.366L4.20254 20.366L4.20692 20.3638C4.57699 20.1788 4.95591 20.0143 5.34201 19.871ZM3.83575 20.3432C3.8358 20.3432 3.83644 20.3438 3.83756 20.3451C3.83626 20.3438 3.8357 20.3432 3.83575 20.3432ZM3.85134 20.5919C3.85064 20.5929 3.85023 20.5934 3.8502 20.5934C3.85017 20.5934 3.85051 20.5929 3.85134 20.5919ZM17.5255 23.9943C14.0294 24.8184 10.5064 24.8095 8.35295 24.3944C7.75612 24.2793 7.28668 24.1371 6.9603 23.9852C6.79737 23.9094 6.6841 23.8376 6.61112 23.7761C6.5706 23.742 6.54874 23.7165 6.53745 23.7009C6.55266 23.6753 6.58931 23.6299 6.67246 23.5621C6.73463 23.5114 6.81325 23.4573 6.91018 23.4006C6.96949 23.5888 7.09016 23.741 7.24359 23.8569C7.52945 24.0729 7.96351 24.1905 8.52935 24.247C11.4683 24.5932 14.4547 24.4577 17.3484 23.8564C17.4062 23.9031 17.4652 23.9491 17.5255 23.9943ZM6.5284 23.7266C6.52705 23.7268 6.52693 23.7216 6.53213 23.7107C6.53235 23.721 6.52976 23.7264 6.5284 23.7266ZM9.53176 11.212L9.53298 11.2101C10.0596 10.4183 10.8333 9.70971 11.7196 8.99017C12.0015 8.76125 12.298 8.52899 12.5993 8.29294C13.221 7.8058 13.8635 7.30249 14.4418 6.77892C15.2113 6.0823 15.919 5.30721 16.3997 4.39192C15.936 5.5745 14.8894 7.04264 12.74 8.74094C11.3494 9.83644 10.5227 10.8538 10.1268 11.8377C9.72344 12.84 9.7866 13.7588 10.0774 14.6007C10.144 14.7936 10.2228 14.9829 10.3105 15.1686C10.0901 14.8854 9.89525 14.6075 9.72958 14.3344C9.36549 13.7341 9.16178 13.1868 9.12271 12.6819C9.08455 12.1888 9.20057 11.7052 9.53176 11.212ZM16.9506 27.673C14.1063 28.5833 11.092 28.4947 9.19597 28.0132C8.66219 27.8777 8.23752 27.7159 7.93908 27.5498C7.63182 27.3787 7.53527 27.246 7.51541 27.1999C7.52345 27.1848 7.54759 27.1479 7.61204 27.0936C7.67022 27.0447 7.74925 26.9916 7.8526 26.9361C7.94391 27.0925 8.0813 27.2032 8.22326 27.2833C8.49895 27.4389 8.90817 27.5437 9.46885 27.6124C11.7613 27.9276 14.0863 27.8393 16.3495 27.3475C16.5469 27.4615 16.7474 27.57 16.9506 27.673ZM2.95079 30.7085C3.28131 30.8521 3.68259 30.9768 4.13914 31.0846C3.59105 31.0121 3.03786 30.9307 2.48047 30.8398L2.47727 30.8393C1.88522 30.7466 1.52892 30.631 1.33522 30.5255C1.29051 30.5011 1.2602 30.4809 1.24003 30.4653C1.26185 30.4336 1.30379 30.3825 1.38365 30.3126C1.54562 30.1709 1.79439 30.0137 2.11376 29.8572C2.18321 29.8232 2.25498 29.7897 2.3287 29.7568C2.28248 29.9573 2.32327 30.1663 2.45343 30.3439C2.58065 30.5175 2.76947 30.6294 2.94991 30.7081L2.95079 30.7085ZM1.20327 30.429C1.20377 30.4289 1.20608 30.4316 1.20871 30.4372C1.2041 30.4318 1.20278 30.4291 1.20327 30.429ZM23.9195 22.4512C23.8196 22.5489 23.7098 22.6466 23.5896 22.7438C24.2617 21.8985 24.4925 21.0725 24.3661 20.3155C24.2937 19.8821 24.1076 19.505 23.8491 19.1958C24.3563 19.5023 24.6865 19.9757 24.7618 20.4782C24.8446 21.0311 24.6542 21.733 23.9195 22.4512Z" fill="black" stroke="black"/>
</svg>
