<svg aria-hidden="true" style="position:absolute;width:0;height:0;overflow:hidden" xmlns="http://www.w3.org/2000/svg"><defs>
<symbol id="icon-close" viewBox="0 0 32 32"><path d="M28.444 0H3.555A3.553 3.553 0 0 0 0 3.555v24.889a3.553 3.553 0 0 0 3.555 3.555h24.889a3.553 3.553 0 0 0 3.555-3.555V3.555A3.553 3.553 0 0 0 28.444 0zm0 28.444H3.555V3.555h24.889v24.889zM24.889 9.6l-6.4 6.4 6.4 6.4-2.489 2.489-6.4-6.4-6.4 6.4L7.111 22.4l6.4-6.4-6.4-6.4L9.6 7.111l6.4 6.4 6.4-6.4L24.889 9.6z"/></symbol>
<symbol id="icon-email" viewBox="0 0 32 32"><path d="m25.85 17.111-8.931 8.916v3.031h3.031l8.916-8.931-3.016-3.016zm5.341-.442-1.883-1.883a.767.767 0 0 0-.559-.25c-.221.015-.427.088-.574.25l-1.471 1.471 3.016 2.942 1.471-1.471a.775.775 0 0 0 0-1.059zm-17.214 6.503H3.678V8.459l11.77 7.356 11.77-7.356v2.943h2.943V5.517a2.952 2.952 0 0 0-2.943-2.943H3.678A2.952 2.952 0 0 0 .735 5.517v17.655a2.952 2.952 0 0 0 2.943 2.943h10.299v-2.943zM27.218 5.517l-11.77 7.356-11.77-7.356h23.54z"/></symbol>
<symbol id="icon-fb" viewBox="0 0 32 32"><path d="M16 .064C7.2.064 0 7.248 0 16.096c0 8 5.856 14.64 13.504 15.84v-11.2H9.44v-4.64h4.064V12.56c0-4.016 2.384-6.224 6.048-6.224 1.744 0 3.568.304 3.568.304v3.952h-2.016c-1.984 0-2.608 1.232-2.608 2.496v3.008h4.448l-.72 4.64h-3.728v11.2A15.997 15.997 0 0 0 32 16.096C32 7.248 24.8.064 16 .064z"/></symbol>
<symbol id="icon-Figma" viewBox="0 0 32 32"><path d="M11.208 31.686a6.148 6.148 0 0 1-3.921-10.921 6.127 6.127 0 0 1-2.274-4.766 6.127 6.127 0 0 1 2.274-4.767c-.99-.803-1.706-1.893-2.048-3.121s-.295-2.531.135-3.73A6.152 6.152 0 0 1 11.209.313h9.584a6.151 6.151 0 0 1 5.835 4.068c.431 1.199.478 2.503.135 3.73s-1.059 2.318-2.048 3.121a6.148 6.148 0 0 1-3.921 10.92 6.188 6.188 0 0 1-3.396-1.01v4.392a6.178 6.178 0 0 1-6.189 6.151zm-.035-9.531a3.37 3.37 0 0 0-3.252 4.068 3.382 3.382 0 0 0 2.666 2.624 3.378 3.378 0 0 0 4.017-3.316v-3.377h-3.431zm9.621-9.532a3.384 3.384 0 0 0-3.293 4.047 3.377 3.377 0 0 0 6.687-.668 3.387 3.387 0 0 0-3.397-3.377h.002zm-9.585 0a3.373 3.373 0 0 0-3.395 3.359 3.373 3.373 0 0 0 3.359 3.395h3.431v-6.754H11.21zm6.187-9.533v6.756h3.395a3.38 3.38 0 0 0 3.393-3.233v.682-.828a3.39 3.39 0 0 0-3.391-3.377h-3.396zm-6.19 0a3.377 3.377 0 1 0 0 6.754h3.398V3.089h-3.398z"/></symbol>
<symbol id="icon-IJ" viewBox="0 0 32 32"><path d="M0 0v32h32V0H0zm4.964 4.148h6.667v2.445H9.778v8.369h1.853v2.445H4.964v-2.445h1.925V6.593H4.964V4.148zm14.74 0h2.963v8.667c0 .816-.073 1.481-.296 2.075a3.96 3.96 0 0 1-.964 1.48c-.369.372-.888.743-1.48.891a5.253 5.253 0 0 1-1.927.371c-1.037 0-1.925-.223-2.592-.593a6.406 6.406 0 0 1-1.705-1.408l1.853-2.073c.312.383.688.708 1.111.963.369.223.815.371 1.26.371.519 0 .961-.148 1.333-.519.295-.371.444-.889.444-1.704V4.15zM2.963 26h12v2h-12v-2z"/></symbol>
<symbol id="icon-instagram" viewBox="0 0 32 32"><path d="M31.968 9.408c-.074-1.701-.349-2.869-.742-3.882a7.839 7.839 0 0 0-1.85-2.837l-.001-.001A7.906 7.906 0 0 0 26.597.861l-.054-.018C25.524.449 24.362.176 22.661.101 20.949.019 20.405 0 16.059 0c-4.344 0-4.888.019-6.595.094-1.699.074-2.869.349-3.88.742a7.847 7.847 0 0 0-2.839 1.85l-.001.001A7.9 7.9 0 0 0 .919 5.465l-.018.054C.506 6.538.232 7.7.157 9.401c-.082 1.712-.101 2.256-.101 6.602 0 4.344.019 4.888.094 6.595.075 1.701.35 2.869.744 3.882a7.915 7.915 0 0 0 1.849 2.837l.001.001c.8.813 1.77 1.443 2.832 1.843 1.019.395 2.182.67 3.882.744 1.707.075 2.251.094 6.595.094 4.346 0 4.89-.019 6.595-.094 1.701-.074 2.869-.349 3.882-.742a8.237 8.237 0 0 0 4.664-4.628l.019-.055c.394-1.019.669-2.182.744-3.882.075-1.707.093-2.251.093-6.595s-.006-4.888-.08-6.595zm-2.88 13.066c-.07 1.563-.333 2.406-.55 2.97a5.341 5.341 0 0 1-3.004 3.024l-.036.012c-.56.219-1.411.482-2.968.55-1.688.075-2.194.094-6.464.094-4.269 0-4.782-.019-6.464-.094-1.563-.069-2.406-.331-2.97-.55a4.953 4.953 0 0 1-1.836-1.192l-.001-.001a4.978 4.978 0 0 1-1.184-1.803L3.6 25.45c-.218-.563-.48-1.413-.549-2.97-.075-1.688-.094-2.195-.094-6.464 0-4.27.019-4.784.094-6.464.069-1.563.331-2.406.549-2.97a4.897 4.897 0 0 1 1.198-1.837l.002-.002a4.972 4.972 0 0 1 1.806-1.182l.034-.011c.56-.219 1.411-.48 2.968-.55 1.688-.074 2.195-.093 6.464-.093 4.275 0 4.782.019 6.464.093 1.563.069 2.406.331 2.97.55a4.91 4.91 0 0 1 1.837 1.194c.531.52.938 1.144 1.195 1.84.218.56.48 1.411.549 2.968.075 1.688.094 2.194.094 6.464 0 4.269-.019 4.768-.094 6.458z"/><path d="M16.059 7.782a8.223 8.223 0 0 0-8.219 8.221 8.223 8.223 0 0 0 16.442.008v-.009a8.223 8.223 0 0 0-8.221-8.221zm0 13.552a5.333 5.333 0 0 1 .001-10.666h.001a5.334 5.334 0 1 1 0 10.668zM26.525 7.458a1.92 1.92 0 0 1-3.84 0 1.92 1.92 0 0 1 3.84 0z"/></symbol>
<symbol id="icon-java" viewBox="0 0 32 32"><path stroke-width=".941" d="M19.109 15.813c-.077.382-.293.751-.584 1.091a2.23 2.23 0 0 0-.002-.383c-.044-.501-.256-1.017-.695-1.52-1.219-1.402-1.429-2.523-1.197-3.41.24-.922.989-1.729 1.973-2.409.09-.062.182-.123.274-.183-.761.678-1.226 1.3-1.419 1.923-.213.686-.075 1.298.205 1.863.224.452.558.911.895 1.372l.194.267c.375.527.436.989.355 1.39zM8.792 18.702a.648.648 0 0 0 .128.715c.094.101.21.172.325.226-.689-.093-1.231-.211-1.58-.344a1.78 1.78 0 0 1-.107-.044c.044-.026.097-.055.162-.087l.004-.002c.348-.174.705-.329 1.068-.464zm-1.417.445.002.002-.002-.002zm.014.234-.001.001.001-.001zm12.87 3.202c-3.29.776-6.606.767-8.633.377-.562-.108-1.004-.242-1.311-.385a1.502 1.502 0 0 1-.329-.197.376.376 0 0 1-.069-.071.561.561 0 0 1 .127-.131c.059-.048.133-.099.224-.152.056.177.169.32.314.429.269.203.678.314 1.21.367 2.766.326 5.577.198 8.3-.368.054.044.11.087.167.13zm-10.35-.252c-.001 0-.001-.005.004-.015 0 .01-.002.015-.004.015zm2.827-11.779.001-.002c.496-.745 1.224-1.412 2.058-2.089.265-.215.544-.434.828-.656.585-.458 1.19-.932 1.734-1.425.724-.656 1.39-1.385 1.843-2.247-.436 1.113-1.421 2.495-3.444 4.093-1.309 1.031-2.087 1.989-2.459 2.915-.38.943-.32 1.808-.046 2.6.063.182.137.36.219.534a8.446 8.446 0 0 1-.547-.785c-.343-.565-.534-1.08-.571-1.555-.036-.464.073-.919.385-1.383zm6.982 15.493c-2.677.857-5.514.773-7.298.32-.502-.128-.902-.28-1.183-.436-.289-.161-.38-.286-.399-.329a.378.378 0 0 1 .091-.1 1.34 1.34 0 0 1 .226-.148.916.916 0 0 0 .349.327c.259.146.645.245 1.172.31 2.158.297 4.346.214 6.476-.249.186.107.375.209.566.306zM6.542 28.902c.311.135.689.253 1.118.354a53.021 53.021 0 0 1-1.561-.23h-.003c-.557-.087-.893-.196-1.075-.295a.664.664 0 0 1-.09-.057.832.832 0 0 1 .135-.144c.152-.133.387-.281.687-.429a6.37 6.37 0 0 1 .202-.095.673.673 0 0 0 .117.553c.12.163.297.269.467.343h.001zm-1.645-.263s.003.002.005.008l-.005-.008zm21.38-7.508a4.104 4.104 0 0 1-.311.275c.633-.796.85-1.573.731-2.285a2.19 2.19 0 0 0-.487-1.054c.477.288.788.734.859 1.207.078.52-.101 1.181-.793 1.857z"/></symbol>
<symbol id="icon-js" viewBox="0 0 32 32"><path d="M0 0h32v32H0V0zm8.409 26.738c.711 1.511 2.116 2.756 4.516 2.756 2.667 0 4.498-1.422 4.498-4.533V14.685h-3.022v10.204c0 1.529-.622 1.92-1.6 1.92-1.031 0-1.458-.711-1.938-1.547L8.41 26.738zm10.631-.32c.889 1.742 2.684 3.076 5.493 3.076 2.844 0 4.978-1.476 4.978-4.196 0-2.507-1.44-3.627-4-4.729l-.747-.32c-1.298-.551-1.849-.924-1.849-1.813 0-.729.551-1.298 1.44-1.298.853 0 1.422.373 1.938 1.298l2.329-1.547c-.978-1.707-2.364-2.364-4.267-2.364-2.684 0-4.409 1.707-4.409 3.964 0 2.453 1.44 3.609 3.609 4.533l.747.32c1.387.604 2.204.978 2.204 2.009 0 .853-.8 1.476-2.044 1.476-1.476 0-2.329-.764-2.969-1.831l-2.453 1.422z"/></symbol>
<symbol id="icon-mark" viewBox="0 0 32 32"><path d="M32 4.769 10.057 30.223 0 18.557l2.578-2.991 7.479 8.654L29.422 1.778 32 4.769z"/></symbol>
<symbol id="icon-nodejs" viewBox="0 0 32 32"><path d="M16 1.236c-.393 0-.8.102-1.135.291L4.043 7.782A2.297 2.297 0 0 0 2.908 9.76v12.48c0 .815.436 1.571 1.135 1.978l2.836 1.629c1.382.669 1.847.684 2.487.684 2.036 0 3.215-1.236 3.215-3.389v-12.32a.322.322 0 0 0-.32-.32h-1.353a.326.326 0 0 0-.335.32v12.32c0 .96-.989 1.905-2.575 1.105l-2.982-1.702a.383.383 0 0 1-.16-.305V9.76c0-.131.058-.247.16-.305l10.822-6.24a.316.316 0 0 1 .32 0l10.822 6.24c.102.058.16.175.16.305v12.48a.378.378 0 0 1-.16.305l-10.822 6.24c-.087.058-.233.058-.335 0l-2.735-1.658c-.116-.044-.233-.058-.305-.015-.771.436-.916.524-1.629.742-.175.058-.451.16.102.465l3.607 2.138c.349.204.727.305 1.135.305s.785-.102 1.135-.305l10.822-6.24a2.297 2.297 0 0 0 1.135-1.978V9.759c0-.815-.436-1.571-1.135-1.978L17.133 1.526a2.312 2.312 0 0 0-1.135-.291zm2.909 8.946c-3.084 0-4.931 1.295-4.931 3.476 0 2.342 1.833 3.025 4.8 3.316 3.535.349 3.811.873 3.811 1.571 0 1.207-.975 1.716-3.244 1.716-2.88 0-3.491-.713-3.709-2.138a.325.325 0 0 0-.32-.262H13.92c-.175 0-.305.131-.305.32 0 1.804.989 3.985 5.731 3.985 3.418 0 5.382-1.353 5.382-3.709 0-2.342-1.571-2.953-4.902-3.404-3.36-.436-3.695-.669-3.695-1.455 0-.655.291-1.527 2.778-1.527 2.182 0 3.04.48 3.375 1.978.029.145.16.247.305.247H24a.28.28 0 0 0 .218-.102c.058-.058.102-.145.073-.233-.204-2.589-1.92-3.782-5.382-3.782z"/></symbol>
<symbol id="icon-phone" viewBox="0 0 32 32"><path d="M6.436 13.849a26.837 26.837 0 0 0 11.716 11.716l3.911-3.911a1.782 1.782 0 0 1 1.813-.444 20.188 20.188 0 0 0 6.347 1.013 1.776 1.776 0 0 1 1.778 1.778v6.222a1.776 1.776 0 0 1-1.778 1.778A30.22 30.22 0 0 1 .001 1.779 1.781 1.781 0 0 1 1.779.001h6.222a1.781 1.781 0 0 1 1.778 1.778c0 2.222.356 4.356 1.013 6.347a1.784 1.784 0 0 1-.444 1.813L6.437 13.85z"/></symbol>
<symbol id="icon-react" viewBox="0 0 32 32"><path d="M16 13.251c1.498 0 2.72 1.222 2.72 2.749 0 1.454-1.222 2.691-2.72 2.691S13.28 17.455 13.28 16c0-1.527 1.222-2.749 2.72-2.749zM9.265 27.636c.916.553 2.924-.291 5.236-2.473a35.163 35.163 0 0 1-2.196-2.764 32.916 32.916 0 0 1-3.491-.524c-.742 3.113-.465 5.251.451 5.76zm1.033-8.349-.422-.742c-.16.422-.32.844-.422 1.251.393.087.829.16 1.28.233l-.436-.742zm9.513-1.105L20.989 16l-1.178-2.182c-.436-.771-.902-1.455-1.324-2.138-.785-.044-1.615-.044-2.487-.044s-1.702 0-2.487.044c-.422.684-.887 1.367-1.324 2.138L11.011 16l1.178 2.182c.436.771.902 1.455 1.324 2.138.785.044 1.615.044 2.487.044s1.702 0 2.487-.044c.422-.684.887-1.367 1.324-2.138zM16 8.407c-.276.32-.567.655-.858 1.047h1.716c-.291-.393-.582-.727-.858-1.047zm0 15.185c.276-.32.567-.655.858-1.047h-1.716c.291.393.582.727.858 1.047zm6.72-19.229c-.902-.553-2.909.291-5.222 2.473A35.163 35.163 0 0 1 19.694 9.6c1.193.116 2.371.291 3.491.524.742-3.113.465-5.251-.465-5.76zm-1.018 8.35.422.742c.16-.422.32-.844.422-1.251-.393-.087-.829-.16-1.28-.233l.436.742zm2.109-10.255c2.138 1.222 2.371 4.436 1.469 8.189 3.695 1.091 6.356 2.895 6.356 5.353s-2.662 4.262-6.356 5.353c.902 3.753.669 6.967-1.469 8.189-2.124 1.222-5.018-.175-7.811-2.836-2.793 2.662-5.687 4.058-7.825 2.836-2.124-1.222-2.356-4.436-1.455-8.189C3.025 20.262.364 18.458.364 16s2.662-4.262 6.356-5.353c-.902-3.753-.669-6.967 1.455-8.189 2.138-1.222 5.033.175 7.825 2.836 2.793-2.662 5.687-4.058 7.811-2.836zM23.389 16a32.778 32.778 0 0 1 1.295 3.287c3.055-.916 4.771-2.225 4.771-3.287s-1.716-2.371-4.771-3.287A32.778 32.778 0 0 1 23.389 16zM8.611 16a32.778 32.778 0 0 1-1.295-3.287c-3.055.916-4.771 2.225-4.771 3.287s1.716 2.371 4.771 3.287c.364-1.105.8-2.196 1.295-3.287zm13.091 3.287-.436.742c.451-.073.887-.145 1.28-.233-.102-.407-.262-.829-.422-1.251l-.422.742zm-4.204 5.876c2.313 2.182 4.32 3.025 5.222 2.473.931-.509 1.207-2.647.465-5.76-1.12.233-2.298.407-3.491.524a35.35 35.35 0 0 1-2.196 2.764zm-7.2-12.45.436-.742c-.451.073-.887.145-1.28.233.102.407.262.829.422 1.251l.422-.742zm4.204-5.877c-2.313-2.182-4.32-3.025-5.236-2.473-.916.509-1.193 2.647-.451 5.76a33.136 33.136 0 0 1 3.491-.524 35.35 35.35 0 0 1 2.196-2.764z"/></symbol>
<symbol id="icon-telegram" viewBox="0 0 32 32"><path d="M28.442 3.378 1.425 13.796c-1.844.741-1.833 1.769-.338 2.228l6.936 2.164L24.072 8.062c.759-.462 1.452-.213.882.293L11.951 20.091l-.478 7.15c.701 0 1.01-.322 1.403-.701l3.369-3.276 7.008 5.176c1.292.712 2.22.346 2.542-1.196l4.6-21.681c.471-1.888-.721-2.743-1.954-2.185z"/></symbol>
<symbol id="icon-viber" viewBox="0 0 32 32"><path d="M29.056 7.744C24.448.64 15.04-1.472 7.744 2.944.64 7.36-1.664 16.96 2.944 24.064l.384.576-1.536 5.76 5.76-1.536.576.384c2.496 1.344 5.184 2.112 7.872 2.112 2.88 0 5.76-.768 8.256-2.304 7.104-4.608 9.216-14.016 4.8-21.312zm-4.032 14.784c-.768 1.152-1.728 1.92-3.072 2.112-.768 0-1.728.384-5.568-1.152-3.264-1.536-5.952-4.032-7.872-6.912-1.152-1.344-1.728-3.072-1.92-4.8 0-1.536.576-2.88 1.536-3.84.384-.384.768-.576 1.152-.576h.96c.384 0 .768 0 .96.768.384.96 1.344 3.264 1.344 3.456.192.192.192.576 0 .768.192.384 0 .768-.192.96s-.384.576-.576.768c-.384.192-.576.576-.384.96a22.101 22.101 0 0 0 2.688 3.264c1.152.96 2.304 1.728 3.648 2.304.384.192.768.192.96-.192s1.152-1.344 1.536-1.728c.384-.384.576-.384.96-.192l3.072 1.536c.384.192.768.384.96.576.192.576.192 1.344-.192 1.92z"/></symbol>
<symbol id="icon-vk" viewBox="0 0 32 32"><path d="M20.912 0h-9.823C2.125 0 0 2.125 0 11.089v9.823c0 8.964 2.125 11.089 11.089 11.089h9.823c8.964 0 11.089-2.125 11.089-11.089v-9.823C32.001 2.125 29.855 0 20.912 0zm4.92 22.828h-2.321c-.88 0-1.151-.698-2.734-2.302-1.375-1.333-1.984-1.51-2.323-1.51-.479 0-.615.135-.615.792v2.099c0 .563-.177.901-1.667.901-2.464 0-5.198-1.49-7.115-4.266-2.891-4.068-3.682-7.115-3.682-7.745 0-.339.135-.656.786-.656h2.328c.589 0 .813.271 1.042.901 1.151 3.323 3.068 6.234 3.859 6.234.292 0 .427-.135.427-.88v-3.432c-.089-1.583-.922-1.719-.922-2.281 0-.271.224-.542.583-.542h3.661c.495 0 .677.271.677.854v4.63c0 .5.224.677.359.677.292 0 .542-.177 1.083-.719 1.392-1.562 2.456-3.828 2.773-4.542.066-.15.124-.303.217-.439.169-.247.435-.441.896-.441h2.328c.698 0 .854.359.698.859-.237 1.098-2.156 3.951-2.872 4.989-.178.258-.402.502-.475.807-.043.178.007.349.206.615.25.339 1.063 1.042 1.604 1.672.995 1.13 1.76 2.078 1.964 2.734.229.65-.108.99-.764.99v.001z"/></symbol></defs></svg>